<?xml version="1.0" standalone="no"?><!DOCTYPE svg PUBLIC "-//W3C//DTD SVG 1.1//EN" "http://www.w3.org/Graphics/SVG/1.1/DTD/svg11.dtd"><svg class="icon" width="200px" height="200.00px" viewBox="0 0 1024 1024" version="1.1" xmlns="http://www.w3.org/2000/svg"><path fill="#333333" d="M234.518756 210.523022c0-57.992533 47.012978-104.994133 104.994133-104.994133s104.994133 47.012978 104.994133 104.994133c0 57.992533-47.012978 104.994133-104.994133 104.994133S234.518756 268.515556 234.518756 210.523022zM342.823822 852.184178c0 27.283911-23.392711 49.083733-51.234133 46.444089-24.2688-2.298311-42.097778-24.064-42.097778-48.4352L249.491911 607.186489c0 19.968-20.627911 35.976533-40.846222 35.976533-22.334578 0-40.812089-18.932622-40.812089-37.899378l0-91.409067 0-81.669689c0-45.101511 36.568178-81.669689 81.669689-81.669689l188.734578 0c45.101511 0 81.669689 36.568178 81.669689 81.669689l0 81.669689 0 91.409067c0 18.966756-18.488889 37.899378-40.812089 37.899378-20.218311 0-40.846222-16.008533-40.846222-35.976533l0 243.006578c0 24.3712-17.828978 46.136889-42.097778 48.4352-27.841422 2.639644-51.234133-19.160178-51.234133-46.444089L342.823822 852.184178zM785.362489 534.755556c7.054222 19.842844 25.8048 34.133333 48.059733 34.133333 28.273778 0 51.2-22.926222 51.2-51.2s-22.926222-51.2-51.2-51.2c-22.254933 0-41.016889 14.290489-48.059733 34.133333L691.2 500.622222 691.2 204.8l91.022222 0c1.035378 0 2.048-0.125156 3.037867-0.3072C792.234667 224.494933 811.053511 238.933333 833.422222 238.933333c28.273778 0 51.2-22.926222 51.2-51.2s-22.926222-51.2-51.2-51.2c-22.368711 0-41.187556 14.4384-48.162133 34.440533C784.270222 170.791822 783.2576 170.666667 782.222222 170.666667l-108.088889 0c-9.4208 0-17.066667 7.645867-17.066667 17.066667L657.066667 500.622222l-91.022222 0c-9.4208 0-17.066667 7.645867-17.066667 17.066667s7.645867 17.066667 17.066667 17.066667l91.022222 0 0 312.888889c0 9.4208 7.645867 17.066667 17.066667 17.066667l108.088889 0c1.035378 0 2.048-0.125156 3.037867-0.3072C792.234667 884.406044 811.053511 898.844444 833.422222 898.844444c28.273778 0 51.2-22.926222 51.2-51.2s-22.926222-51.2-51.2-51.2c-22.368711 0-41.187556 14.4384-48.162133 34.440533C784.270222 830.702933 783.2576 830.577778 782.222222 830.577778l-91.022222 0L691.2 534.755556 785.362489 534.755556z" /></svg>