<?xml version="1.0" standalone="no"?><!DOCTYPE svg PUBLIC "-//W3C//DTD SVG 1.1//EN" "http://www.w3.org/Graphics/SVG/1.1/DTD/svg11.dtd"><svg class="icon" width="200px" height="200.00px" viewBox="0 0 1024 1024" version="1.1" xmlns="http://www.w3.org/2000/svg"><path fill="#333333" d="M880.636 0.006H143.365c-22.62 0-40.959 18.34-40.959 40.959v942.068c0 22.62 18.34 40.96 40.959 40.96h737.271c22.62 0 40.96-18.34 40.96-40.96V40.966c0-22.62-18.34-40.96-40.96-40.96z m-40.96 942.069H184.324V81.925h655.352v860.15zM307.043 741.662h409.595v81.919H307.043zM307.043 546.211h409.595v81.919H307.043zM307.043 290.679h105.053v81.919H307.043zM625.142 331.638m-113.496 0a113.496 113.496 0 1 0 226.992 0 113.496 113.496 0 1 0-226.992 0Z" /></svg>