<?xml version="1.0" standalone="no"?><!DOCTYPE svg PUBLIC "-//W3C//DTD SVG 1.1//EN"
  "http://www.w3.org/Graphics/SVG/1.1/DTD/svg11.dtd">
<svg class="icon" width="200px" height="200.00px" viewBox="0 0 1024 1024" version="1.1"
     xmlns="http://www.w3.org/2000/svg">
  <path
    d="M324.266667 563.2c-131.84 0-238.933333-107.093333-238.933334-238.933333s107.093333-238.933333 238.933334-238.933334 238.933333 107.093333 238.933333 238.933334-107.093333 238.933333-238.933333 238.933333z m0-23.893333c118.613333 0 215.04-96.426667 215.04-215.04S442.88 109.226667 324.266667 109.226667 109.226667 205.653333 109.226667 324.266667s96.426667 215.04 215.04 215.04z"/>
  <path
    d="M324.266667 507.306667c-101.12 0-183.04-81.92-183.04-183.04S223.146667 141.226667 324.266667 141.226667s183.04 81.92 183.04 183.04-81.92 183.04-183.04 183.04z m0-23.893334c87.893333 0 159.146667-71.253333 159.146666-159.146666S412.16 165.12 324.266667 165.12 165.12 236.373333 165.12 324.266667s71.253333 159.146667 159.146667 159.146666zM699.733333 938.666667c-131.84 0-238.933333-107.093333-238.933333-238.933334s107.093333-238.933333 238.933333-238.933333 238.933333 107.093333 238.933334 238.933333-107.093333 238.933333-238.933334 238.933334z m0-23.893334c118.613333 0 215.04-96.426667 215.04-215.04s-96.426667-215.04-215.04-215.04-215.04 96.426667-215.04 215.04 96.426667 215.04 215.04 215.04z"/>
  <path
    d="M699.733333 882.773333c-101.12 0-183.04-81.92-183.04-183.04s81.92-183.04 183.04-183.04 183.04 81.92 183.04 183.04-81.92 183.04-183.04 183.04z m0-23.893333c87.893333 0 159.146667-71.253333 159.146667-159.146667 0-87.893333-71.253333-159.146667-159.146667-159.146666-87.893333 0-159.146667 71.253333-159.146666 159.146666 0 87.893333 71.253333 159.146667 159.146666 159.146667z"
    fill="#666666"/>
  <path
    d="M353.28 278.186667h43.093333c6.826667 0 11.946667 5.546667 11.946667 11.946666s-5.546667 11.946667-11.946667 11.946667H336.213333v23.893333h60.16c6.826667 0 11.946667 5.546667 11.946667 11.946667 0 6.826667-5.546667 11.946667-11.946667 11.946667H336.213333v50.346666c0 6.826667-5.546667 11.946667-11.946666 11.946667s-11.946667-5.546667-11.946667-11.946667V350.293333H252.16c-6.826667 0-11.946667-5.546667-11.946667-11.946666 0-6.826667 5.546667-11.946667 11.946667-11.946667h60.16v-23.893333H252.16c-6.826667 0-11.946667-5.546667-11.946667-11.946667s5.546667-11.946667 11.946667-11.946667H294.4l-21.76-21.76c-4.693333-4.693333-4.693333-12.373333 0-17.066666s12.373333-4.693333 17.066667 0l34.133333 34.133333 34.133333-34.133333c4.693333-4.693333 12.373333-4.693333 17.066667 0s4.693333 12.373333 0 17.066666l-21.76 21.333334z"
    fill="#CFB263"/>
  <path
    d="M710.826667 796.16c23.466667-5.973333 40.96-26.453333 41.813333-51.626667 0.853333-30.293333-22.613333-55.893333-53.333333-56.746666h-2.56c-15.786667-0.426667-28.586667-13.653333-27.733334-29.866667 0.426667-15.786667 14.08-28.16 29.866667-27.733333 15.786667 0.426667 28.586667 13.653333 27.733333 29.866666-0.426667 6.4 5.12 11.946667 11.52 12.373334 6.826667 0.426667 12.373333-5.12 12.373334-11.52 0.853333-25.173333-16.213333-46.933333-40.106667-52.906667v-11.093333c0-6.826667-5.546667-11.946667-11.946667-11.946667-6.826667 0-11.946667 5.546667-11.946666 11.946667v10.666666c-23.04 5.12-40.96 25.173333-41.813334 49.493334-0.853333 29.013333 21.76 53.333333 51.2 54.613333h2.56c17.066667 0.426667 30.72 14.933333 30.293334 32-0.426667 17.066667-14.933333 30.72-32.426667 29.866667-17.066667-0.426667-30.72-14.933333-30.293333-32 0.426667-6.4-5.12-11.946667-11.52-12.373334-6.826667-0.426667-12.373333 5.12-12.373334 11.52-0.853333 27.306667 18.346667 50.773333 44.8 55.893334v10.666666c0 6.826667 5.546667 11.946667 11.946667 11.946667 6.826667 0 11.946667-5.546667 11.946667-11.946667v-11.093333zM810.666667 349.866667V264.533333c0-28.16-23.04-51.2-51.2-51.2h-98.133334c-9.386667 0-17.066667 7.68-17.066666 17.066667s7.68 17.066667 17.066666 17.066667h98.133334c9.386667 0 17.066667 7.68 17.066666 17.066666v85.333334h-26.88c-4.693333 0-8.533333 3.84-8.533333 8.533333 0 2.133333 0.853333 4.266667 2.56 5.973333l43.946667 46.08c3.413333 3.413333 8.533333 3.413333 11.946666 0.426667l0.426667-0.426667 43.946667-46.08c3.413333-3.413333 2.986667-8.96-0.426667-11.946666-1.706667-1.706667-3.84-2.56-5.973333-2.56H810.666667zM214.613333 673.28v85.333333c0 28.16 23.04 51.2 51.2 51.2h98.133334c9.386667 0 17.066667-7.68 17.066666-17.066666s-7.68-17.066667-17.066666-17.066667h-98.133334c-9.386667 0-17.066667-7.68-17.066666-17.066667v-85.333333h26.88c4.693333 0 8.533333-3.84 8.533333-8.533333 0-2.133333-0.853333-4.266667-2.56-5.973334l-43.946667-46.08c-3.413333-3.413333-8.533333-3.413333-11.946666-0.426666l-0.426667 0.426666-43.946667 46.08c-3.413333 3.413333-2.986667 8.96 0.426667 11.946667 1.706667 1.706667 3.84 2.56 5.973333 2.56h26.88z"
    fill="#CFB263"/>
</svg>
