<?xml version="1.0" standalone="no"?><!DOCTYPE svg PUBLIC "-//W3C//DTD SVG 1.1//EN" "http://www.w3.org/Graphics/SVG/1.1/DTD/svg11.dtd"><svg class="icon" width="200px" height="200.00px" viewBox="0 0 1024 1024" version="1.1" xmlns="http://www.w3.org/2000/svg"><path fill="#333333" d="M502.4 512m-48 0a48 48 0 1 0 96 0 48 48 0 1 0-96 0Z"  /><path fill="#333333" d="M145.92 418.56c-40.96-105.6-41.6-200.32 10.24-252.16 94.72-94.72 333.44-16.64 520.32 170.88a892.16 892.16 0 0 1 109.44 132.48c8.32-15.36 16-30.72 22.4-45.44a978.56 978.56 0 0 0-100.48-117.76C496.64 94.72 241.28 19.84 128 135.04 54.4 206.08 55.68 330.24 116.48 464.64c11.52-16.64 19.2-30.72 29.44-46.08zM858.24 605.44c40.96 105.6 41.6 200.32-10.24 252.16-94.72 94.72-333.44 16.64-520.32-170.88a892.16 892.16 0 0 1-109.44-132.48c-8.32 15.36-16 30.72-22.4 45.44a978.56 978.56 0 0 0 100.48 117.76c211.2 211.2 467.2 286.08 582.4 170.88 71.04-71.04 69.76-192 8.96-329.6-8.32 17.28-18.56 31.36-29.44 46.72z"  /><path fill="#333333" d="M156.8 857.6C64 762.88 140.16 524.8 327.68 337.28c16.64-16.64 33.28-31.36 49.92-46.08L417.92 256h3.84l38.4-27.52q-23.04-12.8-45.44-22.4a979.2 979.2 0 0 0-118.4 99.84C85.12 517.76 10.24 773.12 128 888.96 196.48 960 320 960 455.04 896c-15.36-8.96-30.72-19.2-46.08-30.08-105.6 43.52-200.32 43.52-252.16-8.32zM596.48 155.52c105.6-40.96 200.32-40.96 252.16 10.24 94.72 94.72 16.64 333.44-170.88 520.32a892.16 892.16 0 0 1-132.48 108.8q23.04 12.8 46.08 22.4a979.2 979.2 0 0 0 117.76-100.48c211.2-211.2 286.08-467.2 170.88-582.4C808.32 64 683.52 64 549.76 128c15.36 8.96 30.72 19.2 46.08 29.44z"  /></svg>