<?xml version="1.0" standalone="no"?><!DOCTYPE svg PUBLIC "-//W3C//DTD SVG 1.1//EN" "http://www.w3.org/Graphics/SVG/1.1/DTD/svg11.dtd"><svg class="icon" width="200px" height="200.00px" viewBox="0 0 1024 1024" version="1.1" xmlns="http://www.w3.org/2000/svg"><path fill="#333333" d="M281.95611 367.676252l93.022441-82.056713V750.992685h-93.022441V367.676252z m218.683167 383.317456h-93.023464V291.832018l93.023464 102.805229v356.356461z m125.66175 0h-93.023464V428.669273l93.023464 96.077004v226.247431z m125.671983 0h-93.03472V523.405748l93.03472-129.076516v356.664476z m-502.669512 16.318632c0 9.019403 7.312531 16.324771 16.319654 16.324771h502.669513c9.007123 0 16.305328-7.305368 16.305328-16.324771l0.014327-423.543543a16.325794 16.325794 0 0 0-11.306488-15.532734c-6.709805-2.181684-14.107271 0.239453-18.272119 5.984283L640.787944 492.778255 528.901915 377.22368 403.400823 238.513779c-0.222057-0.240476-0.503466-0.369413-0.737802-0.596587-0.626262-0.608866-1.314946-1.129728-2.028189-1.646496-0.601703-0.435928-1.203406-0.847296-1.85525-1.192149-0.270152-0.135076-0.477883-0.35611-0.774641-0.490163-0.515745-0.234337-1.080609-0.282432-1.596355-0.454347-0.701987-0.234337-1.377367-0.46765-2.10289-0.608866-0.859575-0.152472-1.721198-0.191358-2.592029-0.214894-0.713243-0.024559-1.401927-0.061398-2.114147 0.018419-0.907671 0.092097-1.757013 0.33769-2.641148 0.577144-0.504489 0.136099-1.032514 0.136099-1.535979 0.331551-0.159635 0.062422-0.283455 0.196474-0.453324 0.258896-0.824783 0.34997-1.560539 0.853436-2.336203 1.339505-0.601703 0.380669-1.241268 0.70608-1.78055 1.16145-0.11154 0.092097-0.245593 0.135076-0.357133 0.227173l-125.66175 110.853516a16.306352 16.306352 0 0 0-5.529935 12.239741v406.994668zM403.131694 135.579614c-6.057961-6.402814-16.098621-6.832602-22.684606-0.971116L254.786361 246.347172c-6.735388 5.984283-7.34937 16.312492-1.351785 23.040716 5.985306 6.740504 16.294072 7.336067 23.040717 1.345645l113.838494-101.23241 226.673126 239.119575a16.252117 16.252117 0 0 0 11.832466 5.099125c0.246616 0 0.503466-0.00614 0.749058-0.01228a16.35547 16.35547 0 0 0 12.080106-6.217596l122.366711-155.484926 16.074061 55.950177c2.481513 8.675573 11.527521 13.725579 20.188768 11.181645 8.664316-2.481513 13.678507-11.520358 11.183691-20.183651l-24.836615-86.490691c-0.109494-0.357133-0.221034-0.726546-0.342807-1.076515a16.267466 16.267466 0 0 0-3.256154-5.449095v-0.00614c0-0.007163-0.013303-0.007163-0.026606-0.019443 0-0.023536-0.011256-0.023536-0.011256-0.023536a17.222209 17.222209 0 0 0-2.592029-2.31062c0-0.00614-0.023536-0.01228-0.023536-0.01228-0.037862-0.024559-0.026606-0.019443-0.026606-0.024559-0.023536 0-0.011256-0.01228-0.035816-0.01228a16.340121 16.340121 0 0 0-8.232482-2.949163c0-0.007163-0.023536 0-0.036839 0v-0.007163c-0.014326 0-0.024559 0.007163-0.036839 0.007163-0.024559-0.013303-0.061398-0.007163-0.086981-0.007163l-0.011256-0.00614c-0.014326 0-0.014326 0.00614-0.024559 0.00614-0.013303-0.00614-0.036839-0.00614-0.036839-0.00614-0.01228-0.00614-0.037862 0-0.037863 0 0-0.00614-0.023536 0-0.023536 0-0.01228-0.00614-0.024559 0-0.035815 0-0.014326-0.00614-0.024559 0.00614-0.037862-0.012279h-0.061399l-90.000623-4.147452c-8.89456-0.191358-16.638926 6.549147-17.054387 15.54399 0 0.258896-0.013303 0.503466-0.013303 0.761338 0 8.670456 6.819299 15.896007 15.568549 16.295096l58.308894 2.684127-110.781884 140.765719-224.543631-236.876492zM877.203949 860.876108H163.126962V146.799121c0-9.014286-7.311508-16.318631-16.330911-16.318632-9.008146 0-16.319655 7.305368-16.319655 16.318632l0.013303 730.401758c0 9.00917 7.299229 16.320678 16.307375 16.320678h730.407899c9.008146 0 16.319655-7.312531 16.319654-16.320678-0.001023-9.01838-7.312531-16.324771-16.320678-16.324771z" /></svg>