<?xml version="1.0" standalone="no"?><!DOCTYPE svg PUBLIC "-//W3C//DTD SVG 1.1//EN" "http://www.w3.org/Graphics/SVG/1.1/DTD/svg11.dtd"><svg class="icon" width="200px" height="199.80px" viewBox="0 0 1025 1024" version="1.1" xmlns="http://www.w3.org/2000/svg"><path fill="#333333" d="M1024.021333 716.422408c0-49.748297-38.057874-94.440699-109.523052-130.173288 0.14933-2.047957 0.405325-4.095915 0.405325-6.143872l0-95.358013c0-1.215975-0.554655-2.261286-0.789317-3.413262 0.447991-3.157268 0.789317-6.549197 0.789317-10.218454 0-10.197121-2.005292-20.45824-5.546551-30.740693C983.211516 404.620904 1023.978667 358.008541 1023.978667 307.534926L1023.978667 212.15558c0-1.237308-0.575988-2.303952-0.81065-3.477261C1023.616008 205.499719 1023.978667 202.171788 1023.978667 198.523864 1023.978667 87.187517 823.065519 0 566.53753 0 309.966876 0 109.032395 87.187517 109.032395 198.523864c0 3.519927 0.341326 6.783859 0.767984 9.89846C109.565717 209.680965 109.053728 210.832941 109.053728 212.15558l0 95.358013c0 10.218454 2.005292 20.479573 5.589217 30.762026C40.788484 374.050874 0 420.663236 0 471.094186c0 3.519927 0.341326 6.826524 0.767984 9.855795C0.511989 482.229954 0 483.403262 0 484.725902l0 95.379346c0 49.726964 38.036541 94.440699 109.43772 130.215954-0.127997 2.047957-0.383992 4.074582-0.383992 6.101206 0 3.519927 0.319993 6.762526 0.746651 9.855795-0.234662 1.25864-0.746651 2.389284-0.746651 3.733256l0 95.486011c0 111.315014 200.955813 198.502531 457.483802 198.502531C823.001521 1023.978667 1023.978667 936.79115 1023.978667 825.476136L1023.978667 730.011458c0-1.194642-0.554655-2.21862-0.767984-3.327931C1023.658674 723.462261 1024.021333 720.112998 1024.021333 716.422408zM981.291556 716.401075c0 3.157268-0.725318 6.293202-1.322639 9.642466 0 0.021333 0 0.021333 0 0.021333-13.247724 70.270536-175.079019 146.151622-413.45272 146.151622-14.762359 0-29.247391-0.29866-43.412429-0.853316-4.522572-0.191996-8.78915-0.554655-13.247724-0.789317-9.514468-0.490656-19.071603-0.95998-28.287411-1.706631-5.375888-0.447991-10.474448-1.066644-15.743672-1.578634-7.999833-0.767984-16.063665-1.471969-23.807504-2.410616-5.46122-0.66132-10.623779-1.514635-15.935668-2.261286-7.231849-1.023979-14.591696-1.983959-21.588884-3.135935-5.205225-0.853316-10.111789-1.898627-15.167684-2.837274-6.783859-1.25864-13.653049-2.453282-20.180913-3.861253-4.863899-1.023979-9.407804-2.21862-14.122372-3.306598-6.378534-1.493302-12.842399-2.943939-18.964938-4.543905-4.479907-1.194642-8.661153-2.474615-12.991729-3.733256-5.951876-1.706631-12.010416-3.370596-17.706298-5.183892-4.095915-1.322639-7.914502-2.73061-11.882419-4.074582-5.525218-1.898627-11.114435-3.775921-16.340993-5.781213-3.711923-1.407971-7.125185-2.922606-10.687777-4.373242-5.055895-2.090623-10.175788-4.117248-14.933022-6.293202-3.327931-1.514635-6.335868-3.093269-9.514468-4.65057-4.543905-2.21862-9.151809-4.437241-13.375721-6.71986-2.922606-1.578634-5.567884-3.221266-8.34116-4.842566-4.031916-2.346618-8.085165-4.714568-11.775755-7.125185-2.538614-1.642632-4.778567-3.349264-7.146518-5.013229-3.455928-2.431949-6.933189-4.885232-10.026458-7.38118-2.154622-1.727964-4.010583-3.477261-5.994542-5.205225-2.837274-2.495948-5.717214-4.991896-8.191829-7.551843-1.77063-1.791963-3.242599-3.605258-4.821233-5.418554-2.197288-2.495948-4.394575-5.013229-6.229204-7.551843-1.365305-1.877294-2.453282-3.754588-3.605258-5.631883-1.535968-2.474615-3.071936-4.94923-4.266578-7.445178-0.917314-1.941293-1.578634-3.882586-2.282619-5.802546-0.618654-1.663965-1.130643-3.327931-1.578634-4.991896 0.66132 0.255995 1.386638 0.447991 2.06929 0.703985 2.58128 0.95998 5.354555 1.813296 7.999833 2.73061 8.725152 3.093269 17.556968 6.079873 26.772776 8.874482 3.98925 1.215975 8.106498 2.282619 12.18108 3.434595 8.191829 2.303952 16.46899 4.565238 25.002146 6.655861 4.714568 1.151976 9.535801 2.21862 14.357034 3.306598 8.213162 1.834628 16.532989 3.583925 25.002146 5.226558 5.205225 1.002646 10.431783 1.941293 15.722339 2.858607 8.447824 1.471969 16.959647 2.815941 25.6208 4.053249 5.439887 0.789317 10.879773 1.578634 16.404992 2.282619 8.874482 1.130643 17.855628 2.06929 26.900773 2.986604 5.439887 0.533322 10.815775 1.151976 16.31966 1.599967 9.813129 0.81065 19.754255 1.386638 29.716714 1.962626 4.821233 0.255995 9.557134 0.618654 14.3997 0.831983 14.741026 0.597321 29.588717 0.981313 44.521739 0.981313 0.042666 0 0.106664 0 0.170663 0l0 0 0 0c14.314368 0 28.436741-0.29866 42.367117-0.81065 4.415908-0.170663 8.725152-0.490656 13.098394-0.703985 9.429137-0.469324 18.858274-0.95998 28.074082-1.642632 5.141226-0.405325 10.154455-0.938647 15.231683-1.386638 8.319827-0.746651 16.61832-1.514635 24.746151-2.453282 5.205225-0.597321 10.282452-1.322639 15.445012-2.005292 7.765172-1.023979 15.487677-2.06929 23.03952-3.242599 5.119893-0.81065 10.133122-1.706631 15.167684-2.58128 7.338514-1.301306 14.613029-2.623945 21.759547-4.053249 4.885232-1.002646 9.727797-2.047957 14.527697-3.114602 7.01852-1.535968 13.887711-3.157268 20.671569-4.885232 4.586571-1.151976 9.130476-2.303952 13.610383-3.54126 6.741193-1.834628 13.311723-3.754588 19.818254-5.738547 4.159913-1.301306 8.34116-2.538614 12.394408-3.903919 6.527864-2.133289 12.821066-4.373242 19.05027-6.655861 3.69059-1.343972 7.445178-2.687944 11.029104-4.095915 6.399867-2.495948 12.501073-5.141226 18.53828-7.82917 3.050603-1.322639 6.207871-2.623945 9.173142-4.010583 6.549197-3.071936 12.757068-6.293202 18.836941-9.557134 2.111956-1.130643 4.351909-2.197288 6.4212-3.327931 16.17033-9.066478 30.57003-18.794275 42.90044-29.09806 0.703985-0.597321 1.279973-1.237308 1.962626-1.813296 5.290556-4.543905 10.239787-9.173142 14.741026-13.909044 1.386638-1.450636 2.517281-3.007937 3.83992-4.479907 3.498594-3.967917 6.847857-7.935835 9.770463-12.010416 1.322639-1.855961 2.410616-3.775921 3.626591-5.674548 1.77063-2.751943 3.797254-5.482552 5.290556-8.298494C952.897481 654.429033 981.291556 686.129706 981.291556 716.401075zM981.248891 307.513593c0 36.116581-39.444512 73.598467-108.307077 102.781859-80.574321 34.239287-189.457386 53.076228-306.489615 53.076228-217.808796 0-368.824316-63.145351-405.367555-125.501385-6.271869-10.773109-9.343805-20.671569-9.343805-30.356701l0-24.084832c0.981313 0.917314 2.175955 1.813296 3.199933 2.73061C156.562072 287.631341 158.290036 289.060645 159.996667 290.489948c4.309244 3.626591 8.853149 7.189184 13.631716 10.687777 1.877294 1.365305 3.733256 2.751943 5.695881 4.095915 6.271869 4.330576 12.885065 8.554488 19.882252 12.650403 0.490656 0.29866 0.917314 0.597321 1.407971 0.874648 7.594508 4.373242 15.701006 8.554488 24.084832 12.62907 2.282619 1.10931 4.693236 2.175955 7.039853 3.242599 6.357201 2.943939 12.927731 5.823879 19.690256 8.597154 2.837274 1.151976 5.653216 2.303952 8.554488 3.434595 7.551843 2.922606 15.317014 5.738547 23.316848 8.447824 1.941293 0.66132 3.775921 1.343972 5.75988 2.005292 10.005125 3.263932 20.330243 6.357201 30.975355 9.279807 2.602612 0.703985 5.311889 1.343972 7.935835 2.047957 8.234495 2.154622 16.61832 4.202579 25.194142 6.143872 3.605258 0.81065 7.231849 1.599967 10.901106 2.367951 8.469157 1.791963 17.087644 3.455928 25.855461 4.991896 3.199933 0.575988 6.335868 1.194642 9.557134 1.727964 11.81842 1.962626 23.85017 3.754588 36.137914 5.311889 2.389284 0.29866 4.885232 0.511989 7.295848 0.81065 10.026458 1.194642 20.15958 2.239953 30.442032 3.135935 4.330576 0.383992 8.703819 0.703985 13.077061 1.023979 8.895815 0.66132 17.898294 1.215975 26.964772 1.642632 4.437241 0.213329 8.853149 0.447991 13.311723 0.618654 11.797088 0.426658 23.679507 0.682652 35.732589 0.725318 1.365305 0 2.687944 0.085332 4.053249 0.085332 1.599967 0 3.135935-0.085332 4.735901-0.085332 11.647757-0.042666 23.167517-0.29866 34.580613-0.703985 4.927897-0.170663 9.813129-0.447991 14.677028-0.682652 8.426491-0.426658 16.746318-0.917314 25.023479-1.535968 4.94923-0.362659 9.919793-0.725318 14.805025-1.173309 9.173142-0.81065 18.196954-1.77063 27.114102-2.794608 3.477261-0.405325 7.039853-0.725318 10.474448-1.151976 11.81842-1.514635 23.402179-3.221266 34.793942-5.119893 4.074582-0.682652 8.063832-1.450636 12.074415-2.175955 7.82917-1.407971 15.551676-2.87994 23.146184-4.479907 4.245245-0.895981 8.447824-1.791963 12.62907-2.73061 7.871836-1.77063 15.573009-3.69059 23.210183-5.653216 3.135935-0.831983 6.378534-1.599967 9.471803-2.431949 10.431783-2.858607 20.607571-5.90921 30.463365-9.130476 2.154622-0.703985 4.159913-1.471969 6.293202-2.197288 7.935835-2.687944 15.637008-5.482552 23.124852-8.383825 2.73061-1.066644 5.397221-2.154622 8.063832-3.221266 7.210516-2.943939 14.165038-5.994542 20.906231-9.130476 1.898627-0.895981 3.861253-1.749297 5.738547-2.645278 17.27964-8.362492 32.852649-17.364972 46.655028-26.964772 1.279973-0.874648 2.453282-1.77063 3.69059-2.666611 5.738547-4.13858 11.114435-8.362492 16.17033-12.693069 1.002646-0.853316 2.047957-1.706631 3.02927-2.58128 1.25864-1.10931 2.645278-2.175955 3.861253-3.306598L981.227558 307.513593zM566.53753 42.687111c196.134581 0 414.732693 63.998667 414.775359 155.815421 0 3.114602-0.703985 6.165205-1.279973 9.514468-0.021333 0.042666-0.063999 0.085332-0.063999 0.14933-4.13858 21.972876-22.783525 44.479073-53.75888 65.043978-68.115914 45.247057-195.83592 81.107644-359.69384 81.107644-238.395033 0-400.204996-75.881086-413.45272-146.194288-0.597321-3.199933-1.322639-6.378534-1.322639-9.642466C151.762172 106.685777 370.338951 42.687111 566.53753 42.687111zM135.293181 375.394846c4.095915 5.09856 8.725152 10.069124 13.73838 14.954355 0.789317 0.746651 1.727964 1.471969 2.538614 2.21862 4.287911 4.010583 8.767817 7.999833 13.653049 11.861086 1.706631 1.343972 3.647924 2.645278 5.418554 3.967917 4.245245 3.1786 8.533156 6.335868 13.183725 9.386471 2.346618 1.535968 4.885232 3.007937 7.338514 4.522572 4.437241 2.73061 8.895815 5.439887 13.631716 8.063832 2.858607 1.578634 5.866544 3.093269 8.831816 4.629237 4.671903 2.431949 9.365138 4.842566 14.293036 7.146518 3.285265 1.557301 6.71986 3.050603 10.133122 4.543905 4.927897 2.175955 9.89846 4.330576 15.06102 6.399867 3.69059 1.493302 7.466511 2.922606 11.263765 4.351909 5.183892 1.941293 10.431783 3.861253 15.829004 5.717214 4.031916 1.365305 8.149164 2.73061 12.287744 4.053249 5.439887 1.727964 10.965105 3.413262 16.575655 5.034562 4.394575 1.279973 8.78915 2.517281 13.269057 3.711923 5.631883 1.514635 11.37043 2.965272 17.151643 4.373242 4.735901 1.151976 9.45047 2.282619 14.271703 3.370596 5.802546 1.301306 11.690423 2.517281 17.642299 3.69059 5.034562 1.002646 10.069124 2.026624 15.189017 2.965272 5.930543 1.087977 11.967751 2.047957 18.004958 3.02927 5.354555 0.874648 10.687777 1.749297 16.148997 2.538614 5.930543 0.853316 11.967751 1.557301 18.004958 2.303952 5.781213 0.703985 11.51976 1.450636 17.364972 2.090623 5.738547 0.597321 11.562426 1.066644 17.364972 1.578634 6.314535 0.554655 12.586404 1.173309 18.986271 1.599967 5.09856 0.362659 10.303785 0.554655 15.466344 0.831983 7.253182 0.405325 14.463699 0.853316 21.802212 1.10931 1.813296 0.063999 3.647924 0.042666 5.46122 0.085332 10.389117 0.29866 20.8209 0.554655 31.359347 0.554655 9.30114 0 18.452949-0.341326 27.647424-0.554655 5.055895-0.127997 10.175788-0.106664 15.167684-0.319993 8.255828-0.319993 16.340993-0.895981 24.468824-1.407971 6.186538-0.383992 12.415741-0.66132 18.516948-1.151976 7.786504-0.618654 15.402346-1.450636 23.03952-2.239953 6.314535-0.639987 12.650403-1.237308 18.858274-1.983959 7.423845-0.895981 14.655695-1.983959 21.93021-3.050603 6.229204-0.895981 12.47974-1.77063 18.623612-2.794608 7.039853-1.173309 13.909044-2.495948 20.8209-3.818587 6.122539-1.173309 12.202412-2.346618 18.196954-3.626591 6.698527-1.429304 13.247724-2.986604 19.775588-4.565238 5.845212-1.429304 11.647757-2.87994 17.343639-4.415908 6.399867-1.706631 12.671736-3.519927 18.879607-5.354555 5.46122-1.642632 10.837108-3.327931 16.127664-5.077228 6.101206-2.005292 12.095748-4.053249 18.004958-6.207871 2.047957-0.746651 4.245245-1.407971 6.271869-2.175955 1.365305 4.671903 2.047957 9.215808 2.047957 13.695715 0 3.285265-0.703985 6.463865-1.322639 9.706464-1.450636 7.82917-5.034562 15.722339-10.111789 23.572842-40.361826 62.654695-191.484011 122.536114-403.362263 122.536114-148.967563 0-268.047749-29.631383-339.640924-68.990563-42.943105-23.636841-68.798567-50.793608-73.76913-77.182392-0.618654-3.221266-1.322639-6.357201-1.322639-9.5998C42.708444 437.836212 76.201079 403.447595 135.293181 375.394846zM42.708444 580.105248l0-24.127497c0.938647 0.895981 2.06929 1.727964 3.050603 2.602612 1.77063 1.599967 3.669257 3.135935 5.525218 4.735901 4.095915 3.455928 8.426491 6.826524 12.970396 10.175788 2.06929 1.514635 4.095915 3.050603 6.271869 4.543905 5.866544 4.010583 12.031749 7.957168 18.559613 11.797088 0.938647 0.533322 1.77063 1.130643 2.709277 1.663965 7.466511 4.287911 15.402346 8.405158 23.615508 12.394408 2.559947 1.237308 5.247891 2.410616 7.871836 3.626591 6.079873 2.815941 12.351743 5.546551 18.794275 8.191829 3.02927 1.25864 6.05854 2.474615 9.151809 3.69059 7.253182 2.815941 14.719693 5.503885 22.399533 8.106498 2.21862 0.746651 4.351909 1.557301 6.613196 2.282619 9.919793 3.242599 20.15958 6.314535 30.676694 9.194475 2.687944 0.725318 5.482552 1.386638 8.213162 2.111956 8.170496 2.154622 16.447657 4.159913 24.938147 6.079873 3.626591 0.81065 7.295848 1.599967 10.986438 2.367951 8.49049 1.791963 17.13031 3.455928 25.91946 5.013229 3.135935 0.554655 6.229204 1.173309 9.407804 1.685298 11.882419 2.005292 23.978167 3.797254 36.32991 5.354555 2.111956 0.255995 4.287911 0.447991 6.399867 0.703985 10.389117 1.237308 20.884898 2.303952 31.551343 3.242599 4.010583 0.362659 8.085165 0.639987 12.138414 0.95998 9.386471 0.703985 18.858274 1.279973 28.436741 1.727964 3.946584 0.191996 7.871836 0.426658 11.839753 0.554655 13.29039 0.469324 26.687444 0.81065 40.297827 0.81065 0 0 0 0 0.021333 0s0 0 0.021333 0c0.042666 0 0.085332 0 0.127997 0 13.525052 0 26.858107-0.341326 40.063165-0.81065 4.095915-0.14933 8.127831-0.383992 12.202412-0.554655 9.429137-0.447991 18.772942-1.023979 28.010083-1.727964 4.181246-0.319993 8.362492-0.597321 12.501073-0.981313 10.453116-0.895981 20.756901-1.983959 30.911356-3.1786 2.325285-0.277328 4.714568-0.469324 7.01852-0.767984 12.223745-1.535968 24.212829-3.327931 35.967251-5.290556 3.477261-0.575988 6.847857-1.237308 10.282452-1.855961 8.447824-1.493302 16.788984-3.114602 24.980813-4.821233 3.903919-0.831983 7.765172-1.663965 11.605092-2.517281 8.149164-1.855961 16.127664-3.797254 23.956834-5.823879 3.050603-0.789317 6.165205-1.535968 9.151809-2.346618 10.325118-2.837274 20.394242-5.823879 30.143372-9.023812 2.751943-0.895981 5.354555-1.877294 8.063832-2.794608 7.103852-2.431949 14.058374-4.927897 20.8209-7.551843 3.434595-1.322639 6.783859-2.687944 10.133122-4.053249 5.973209-2.453282 11.775755-4.991896 17.42897-7.594508 3.050603-1.386638 6.143872-2.751943 9.087811-4.181246 7.935835-3.882586 15.615675-7.850503 22.847524-11.989084 1.834628-1.045312 3.434595-2.154622 5.205225-3.199933 5.525218-3.285265 10.85844-6.655861 15.871669-10.111789 2.666611-1.813296 5.162559-3.669257 7.67984-5.546551 3.925252-2.901273 7.658507-5.802546 11.242432-8.810483 2.325285-1.962626 4.714568-3.903919 6.890523-5.887877 0.789317-0.703985 1.685298-1.386638 2.453282-2.111956l0 24.084832c0 4.330576-0.511989 8.661153-1.642632 13.119727-17.322306 68.627904-180.198913 142.695694-413.090061 142.695694-79.82767 0-156.988729-9.322472-223.483344-26.047457-33.961959-8.533156-65.299973-18.922272-92.392742-31.210016 0 0-0.021333 0-0.021333 0C78.739693 650.077123 42.708444 614.195204 42.708444 580.105248zM981.248891 825.476136c0 73.662465-170.300452 155.794088-414.754026 155.794088-244.432241 0-414.754026-82.131622-414.754026-155.794088l0-24.170163c0.981313 0.917314 2.133289 1.791963 3.135935 2.687944 1.685298 1.493302 3.455928 2.986604 5.226558 4.479907 4.245245 3.562592 8.703819 7.061186 13.397054 10.495781 1.962626 1.407971 3.861253 2.858607 5.90921 4.245245 6.122539 4.202579 12.543739 8.34116 19.370263 12.309077 0.66132 0.405325 1.25864 0.81065 1.91996 1.194642 7.53051 4.330576 15.551676 8.49049 23.871503 12.522406 2.431949 1.194642 4.970563 2.303952 7.487844 3.455928 6.207871 2.87994 12.607737 5.674548 19.1996 8.383825 2.965272 1.215975 5.90921 2.389284 8.917148 3.583925 7.317181 2.837274 14.847691 5.546551 22.570196 8.170496 2.197288 0.746651 4.287911 1.535968 6.527864 2.261286 9.89846 3.221266 20.116914 6.271869 30.634028 9.151809 2.815941 0.789317 5.75988 1.471969 8.618487 2.21862 7.9785 2.090623 16.084998 4.053249 24.362159 5.930543 3.818587 0.853316 7.67984 1.685298 11.562426 2.495948 8.085165 1.706631 16.31966 3.285265 24.66082 4.778567 3.583925 0.639987 7.125185 1.322639 10.751776 1.941293 11.583759 1.941293 23.402179 3.69059 35.455261 5.205225 3.007937 0.405325 6.122539 0.66132 9.173142 1.023979 9.322472 1.087977 18.730276 2.090623 28.287411 2.922606 4.842566 0.447991 9.727797 0.789317 14.613029 1.151976 8.191829 0.597321 16.447657 1.10931 24.788817 1.514635 5.09856 0.255995 10.154455 0.511989 15.295681 0.703985 10.133122 0.362659 20.372909 0.533322 30.676694 0.618654 2.815941 0.021333 5.546551 0.170663 8.383825 0.170663 3.02927 0 5.930543-0.170663 8.93848-0.191996 9.983792-0.085332 19.924918-0.255995 29.75938-0.597321 5.546551-0.191996 11.007771-0.469324 16.46899-0.767984 7.701173-0.383992 15.35968-0.831983 22.911523-1.386638 5.525218-0.405325 11.007771-0.81065 16.426324-1.301306 8.34116-0.725318 16.532989-1.6213 24.703485-2.538614 4.181246-0.469324 8.447824-0.874648 12.607737-1.386638 11.583759-1.471969 22.911523-3.157268 34.111289-5.013229 4.437241-0.725318 8.746484-1.557301 13.119727-2.346618 7.487844-1.343972 14.847691-2.773276 22.122206-4.287911 4.415908-0.917314 8.810483-1.877294 13.162392-2.858607 7.637174-1.727964 15.146351-3.583925 22.527531-5.503885 3.349264-0.874648 6.762526-1.685298 10.069124-2.58128 10.346451-2.837274 20.415575-5.845212 30.186038-9.045145 2.346618-0.767984 4.586571-1.599967 6.911856-2.410616 7.67984-2.602612 15.167684-5.311889 22.420866-8.127831 2.901273-1.130643 5.738547-2.261286 8.554488-3.434595 6.911856-2.815941 13.610383-5.75988 20.095581-8.767817 2.175955-1.002646 4.394575-1.983959 6.506531-3.007937 8.554488-4.13858 16.810316-8.426491 24.532822-12.885065 0-0.021333 0.021333-0.021333 0.021333-0.021333 7.594508-4.394575 14.677028-8.981146 21.41822-13.653049 1.642632-1.130643 3.1786-2.282619 4.778567-3.434595 5.183892-3.775921 10.090456-7.594508 14.69836-11.541093 1.429304-1.237308 2.901273-2.410616 4.266578-3.647924 1.087977-1.002646 2.325285-1.91996 3.391929-2.922606L981.248891 825.476136z" /></svg>